<svg xmlns="http://www.w3.org/2000/svg" width="571.0513305664062" height="256.3203430175781" viewBox="-208.3163299560547 -93.8541259765625 571.0513305664062 256.3203430175781"><title>Neo4j Graph Visualization</title><desc>Created using Neo4j (http://www.neo4j.com/)</desc><g class="layer relationships"><g class="relationship" transform="translate(133.07517236441993 131.7323294024033) rotate(303.5367543289634)"><path class="outline" fill="#A5ABB6" stroke="none" d="M 25 0.5 L 45.34805858141342 0.5 L 45.34805858141342 -0.5 L 25 -0.5 Z M 62.94003856188217 0.5 L 83.28809714329559 0.5 L 83.28809714329559 3.5 L 90.28809714329559 0 L 83.28809714329559 -3.5 L 83.28809714329559 -0.5 L 62.94003856188217 -0.5 Z"/><text text-anchor="middle" pointer-events="none" font-size="8px" fill="#000000" x="54.144048571647794" y="3" font-family="sans-serif">IN</text></g><g class="relationship" transform="translate(78.20565902404401 35.4384844832271) rotate(420.32493446944136)"><path class="outline" fill="#A5ABB6" stroke="none" d="M 25 0.5 L 43.11873743742706 0.5 L 43.11873743742706 -0.5 L 25 -0.5 Z M 60.71071741789581 0.5 L 78.82945485532287 0.5 L 78.82945485532287 3.5 L 85.82945485532287 0 L 78.82945485532287 -3.5 L 78.82945485532287 -0.5 L 60.71071741789581 -0.5 Z"/><text text-anchor="middle" pointer-events="none" font-size="8px" fill="#000000" x="51.91472742766143" y="3" font-family="sans-serif">IN</text></g><g class="relationship" transform="translate(263.2515894761297 -60.3671835926223) rotate(415.65525955441933)"><path class="outline" fill="#A5ABB6" stroke="none" d="M 25 0.5 L 50.17038829840579 0.5 L 50.17038829840579 -0.5 L 25 -0.5 Z M 67.76236827887453 0.5 L 92.93275657728033 0.5 L 92.93275657728033 3.5 L 99.93275657728033 0 L 92.93275657728033 -3.5 L 92.93275657728033 -0.5 L 67.76236827887453 -0.5 Z"/><text text-anchor="middle" pointer-events="none" font-size="8px" fill="#000000" x="58.966378288640165" y="3" font-family="sans-serif">IN</text></g><g class="relationship" transform="translate(196.7685944704519 35.63605828148625) rotate(304.7029038429465)"><path class="outline" fill="#A5ABB6" stroke="none" d="M 25 0.5 L 46.09196055451323 0.5 L 46.09196055451323 -0.5 L 25 -0.5 Z M 63.68394053498198 0.5 L 84.7759010894952 0.5 L 84.7759010894952 3.5 L 91.7759010894952 0 L 84.7759010894952 -3.5 L 84.7759010894952 -0.5 L 63.68394053498198 -0.5 Z"/><text text-anchor="middle" pointer-events="none" font-size="8px" fill="#000000" x="54.8879505447476" y="3" font-family="sans-serif">IN</text></g><g class="relationship" transform="translate(-179.31633407335076 41.135875008347455) rotate(406.96652578513385)"><path class="outline" fill="#A5ABB6" stroke="none" d="M 25 0.5 L 49.467605542678314 0.5 L 49.467605542678314 -0.5 L 25 -0.5 Z M 67.05958552314706 0.5 L 91.52719106582538 0.5 L 91.52719106582538 3.5 L 98.52719106582538 0 L 91.52719106582538 -3.5 L 91.52719106582538 -0.5 L 67.05958552314706 -0.5 Z"/><text text-anchor="middle" pointer-events="none" font-size="8px" fill="#000000" x="58.26359553291269" y="3" font-family="sans-serif">IN</text></g><g class="relationship" transform="translate(-95.01822570190255 131.42870893002976) rotate(308.60474814323527)"><path class="outline" fill="#A5ABB6" stroke="none" d="M 25 0.5 L 47.55971688749706 0.5 L 47.55971688749706 -0.5 L 25 -0.5 Z M 65.15169686796581 0.5 L 87.71141375546287 0.5 L 87.71141375546287 3.5 L 94.71141375546287 0 L 87.71141375546287 -3.5 L 87.71141375546287 -0.5 L 65.15169686796581 -0.5 Z"/><text text-anchor="middle" pointer-events="none" font-size="8px" fill="#000000" x="56.355706877731436" y="3" font-family="sans-serif">IN</text></g><g class="relationship" transform="translate(123.08852853210922 -64.85412758446432) rotate(413.7508850654953)"><path class="outline" fill="#A5ABB6" stroke="none" d="M 25 0.5 L 50.00776104461868 0.5 L 50.00776104461868 -0.5 L 25 -0.5 Z M 67.59974102508744 0.5 L 92.60750206970611 0.5 L 92.60750206970611 3.5 L 99.60750206970611 0 L 92.60750206970611 -3.5 L 92.60750206970611 -0.5 L 67.59974102508744 -0.5 Z"/><text text-anchor="middle" pointer-events="none" font-size="8px" fill="#000000" x="58.80375103485306" y="3" font-family="sans-serif">IN</text></g><g class="relationship" transform="translate(78.20565902404401 35.4384844832271) rotate(294.10943242522796)"><path class="outline" fill="#A5ABB6" stroke="none" d="M 25 0.5 L 42.642794148656186 0.5 L 42.642794148656186 -0.5 L 25 -0.5 Z M 60.234774129124936 0.5 L 77.87756827778112 0.5 L 77.87756827778112 3.5 L 84.87756827778112 0 L 77.87756827778112 -3.5 L 77.87756827778112 -0.5 L 60.234774129124936 -0.5 Z"/><text text-anchor="middle" pointer-events="none" font-size="8px" fill="#000000" x="51.43878413889056" y="3" font-family="sans-serif">IN</text></g><g class="relationship" transform="translate(271.0010684715298 133.46621022639235) rotate(304.67564659130574)"><path class="outline" fill="#A5ABB6" stroke="none" d="M 25 0.5 L 42.83728708058981 0.5 L 42.83728708058981 -0.5 L 25 -0.5 Z M 60.42926706105856 0.5 L 78.26655414164837 0.5 L 78.26655414164837 3.5 L 85.26655414164837 0 L 78.26655414164837 -3.5 L 78.26655414164837 -0.5 L 60.42926706105856 -0.5 Z"/><text text-anchor="middle" pointer-events="none" font-size="8px" fill="#000000" x="51.633277070824185" y="3" font-family="sans-serif">IN</text></g><g class="relationship" transform="translate(196.7685944704519 35.63605828148625) rotate(412.80916170588534)"><path class="outline" fill="#A5ABB6" stroke="none" d="M 25 0.5 L 49.1067762867912 0.5 L 49.1067762867912 -0.5 L 25 -0.5 Z M 66.69875626725995 0.5 L 90.80553255405115 0.5 L 90.80553255405115 3.5 L 97.80553255405115 0 L 90.80553255405115 -3.5 L 90.80553255405115 -0.5 L 66.69875626725995 -0.5 Z"/><text text-anchor="middle" pointer-events="none" font-size="8px" fill="#000000" x="57.90276627702558" y="3" font-family="sans-serif">IN</text></g><g class="relationship" transform="translate(-179.31633407335076 41.135875008347455) rotate(307.51043699996177)"><path class="outline" fill="#A5ABB6" stroke="none" d="M 25 0.5 L 54.09952843389462 0.5 L 54.09952843389462 -0.5 L 25 -0.5 Z M 71.69150841436337 0.5 L 100.79103684825799 0.5 L 100.79103684825799 3.5 L 107.79103684825799 0 L 100.79103684825799 -3.5 L 100.79103684825799 -0.5 L 71.69150841436337 -0.5 Z"/><text text-anchor="middle" pointer-events="none" font-size="8px" fill="#000000" x="62.895518424128994" y="3" font-family="sans-serif">IN</text></g><g class="relationship" transform="translate(-98.45908346721373 -64.19961042582028) rotate(412.5681646535078)"><path class="outline" fill="#A5ABB6" stroke="none" d="M 25 0.5 L 51.97837233616964 0.5 L 51.97837233616964 -0.5 L 25 -0.5 Z M 69.57035231663839 0.5 L 96.54872465280803 0.5 L 96.54872465280803 3.5 L 103.54872465280803 0 L 96.54872465280803 -3.5 L 96.54872465280803 -0.5 L 69.57035231663839 -0.5 Z"/><text text-anchor="middle" pointer-events="none" font-size="8px" fill="#000000" x="60.77436232640402" y="3" font-family="sans-serif">IN</text></g><g class="relationship" transform="translate(-20.32496429252388 37.87797786200524) rotate(358.58171885477554)"><path class="outline" fill="#A5ABB6" stroke="none" d="M 25 0.5 L 36.98441904595489 0.5 L 36.98441904595489 -0.5 L 25 -0.5 Z M 54.57639902642364 0.5 L 66.56081807237852 0.5 L 66.56081807237852 3.5 L 73.56081807237852 0 L 66.56081807237852 -3.5 L 66.56081807237852 -0.5 L 54.57639902642364 -0.5 Z"/><text text-anchor="middle" pointer-events="none" font-size="8px" fill="#000000" x="45.78040903618926" y="3" font-family="sans-serif">IN</text></g><g class="relationship" transform="translate(-98.4852160263417 35.624698616188525) rotate(361.65132070930173)"><path class="outline" fill="#A5ABB6" stroke="none" d="M 25 0.5 L 26.800372431522334 0.5 L 26.800372431522334 -0.5 L 25 -0.5 Z M 44.392352411991084 0.5 L 46.19272484351342 0.5 L 46.19272484351342 3.5 L 53.19272484351342 0 L 46.19272484351342 -3.5 L 46.19272484351342 -0.5 L 44.392352411991084 -0.5 Z"/><text text-anchor="middle" pointer-events="none" font-size="8px" fill="#000000" x="35.59636242175671" y="3" font-family="sans-serif">IN</text></g><g class="relationship" transform="translate(-179.31633407335076 41.135875008347455) rotate(356.09953180002594)"><path class="outline" fill="#A5ABB6" stroke="none" d="M 25 0.5 L 28.213400001331173 0.5 L 28.213400001331173 -0.5 L 25 -0.5 Z M 45.80537998179992 0.5 L 49.0187799831311 0.5 L 49.0187799831311 3.5 L 56.0187799831311 0 L 49.0187799831311 -3.5 L 49.0187799831311 -0.5 L 45.80537998179992 -0.5 Z"/><text text-anchor="middle" pointer-events="none" font-size="8px" fill="#000000" x="37.00938999156555" y="3" font-family="sans-serif">IN</text></g></g><g class="layer nodes"><g class="node" transform="translate(133.07517236441993,131.7323294024033)"><circle class="outline" cx="0" cy="0" r="25" fill="#A5ABB6" stroke="#9AA1AC" stroke-width="2px"/><text text-anchor="middle" pointer-events="none" y="5" font-size="10px" fill="#FFFFFF" font-family="sans-serif"> serv42…</text></g><g class="node" transform="translate(263.2515894761297,-60.3671835926223)"><circle class="outline" cx="0" cy="0" r="25" fill="#A5ABB6" stroke="#9AA1AC" stroke-width="2px"/><text text-anchor="middle" pointer-events="none" y="5" font-size="10px" fill="#FFFFFF" font-family="sans-serif"> serv11…</text></g><g class="node" transform="translate(-95.01822570190255,131.42870893002976)"><circle class="outline" cx="0" cy="0" r="25" fill="#A5ABB6" stroke="#9AA1AC" stroke-width="2px"/><text text-anchor="middle" pointer-events="none" y="5" font-size="10px" fill="#FFFFFF" font-family="sans-serif"> serv16…</text></g><g class="node" transform="translate(123.08852853210922,-64.85412758446432)"><circle class="outline" cx="0" cy="0" r="25" fill="#A5ABB6" stroke="#9AA1AC" stroke-width="2px"/><text text-anchor="middle" pointer-events="none" y="5" font-size="10px" fill="#FFFFFF" font-family="sans-serif"> serv17…</text></g><g class="node" transform="translate(271.0010684715298,133.46621022639235)"><circle class="outline" cx="0" cy="0" r="25" fill="#A5ABB6" stroke="#9AA1AC" stroke-width="2px"/><text text-anchor="middle" pointer-events="none" y="5" font-size="10px" fill="#FFFFFF" font-family="sans-serif"> serv49…</text></g><g class="node selected" transform="translate(-98.45908346721373,-64.19961042582028)"><circle class="outline" cx="0" cy="0" r="25" fill="#A5ABB6" stroke="#9AA1AC" stroke-width="2px"/><text text-anchor="middle" pointer-events="none" y="5" font-size="10px" fill="#FFFFFF" font-family="sans-serif"> serv15…</text></g><g class="node" transform="translate(-20.32496429252388,37.87797786200524)"><circle class="outline" cx="0" cy="0" r="25" fill="#A5ABB6" stroke="#9AA1AC" stroke-width="2px"/><text text-anchor="middle" pointer-events="none" y="5" font-size="10px" fill="#FFFFFF" font-family="sans-serif"> serv97…</text></g><g class="node" transform="translate(-98.4852160263417,35.624698616188525)"><circle class="outline" cx="0" cy="0" r="25" fill="#A5ABB6" stroke="#9AA1AC" stroke-width="2px"/><text text-anchor="middle" pointer-events="none" y="5" font-size="10px" fill="#FFFFFF" font-family="sans-serif"> serv14…</text></g><g class="node" transform="translate(78.20565902404401,35.4384844832271)"><circle class="outline" cx="0" cy="0" r="25" fill="#A5ABB6" stroke="#9AA1AC" stroke-width="2px"/><text text-anchor="middle" pointer-events="none" y="5" font-size="10px" fill="#FFFFFF" font-family="sans-serif"> serv28…</text></g><g class="node" transform="translate(-179.31633407335076,41.135875008347455)"><circle class="outline" cx="0" cy="0" r="25" fill="#DE9BF9" stroke="#BF85D6" stroke-width="2px"/><text text-anchor="middle" pointer-events="none" y="5" font-size="10px" fill="#FFFFFF" font-family="sans-serif"> start</text></g><g class="node" transform="translate(333.7350215476697,42.78454673418602)"><circle class="outline" cx="0" cy="0" r="25" fill="#68BDF6" stroke="#5CA8DB" stroke-width="2px"/><text text-anchor="middle" pointer-events="none" y="5" font-size="10px" fill="#FFFFFF" font-family="sans-serif"> end</text></g><g class="node" transform="translate(196.7685944704519,35.63605828148625)"><circle class="outline" cx="0" cy="0" r="25" fill="#A5ABB6" stroke="#9AA1AC" stroke-width="2px"/><text text-anchor="middle" pointer-events="none" y="5" font-size="10px" fill="#FFFFFF" font-family="sans-serif"> serv18…</text></g></g></svg>