<svg xmlns="http://www.w3.org/2000/svg" width="521.296142578125" height="376.4463806152344" viewBox="-212.68756103515625 -96.37741088867188 521.296142578125 376.4463806152344"><title>Neo4j Graph Visualization</title><desc>Created using Neo4j (http://www.neo4j.com/)</desc><g class="layer relationships"><g class="relationship" transform="translate(-183.68756177252772 90.00719747923887) rotate(408.75799581282433)"><path class="outline" fill="#A5ABB6" stroke="none" d="M 25 0.5 L 94.80264900719891 0.5 L 94.80264900719891 -0.5 L 25 -0.5 Z M 112.39462898766766 0.5 L 182.19727799486657 0.5 L 182.19727799486657 3.5 L 189.19727799486657 0 L 182.19727799486657 -3.5 L 182.19727799486657 -0.5 L 112.39462898766766 -0.5 Z"/><text text-anchor="middle" pointer-events="none" font-size="8px" fill="#000000" x="103.59863899743328" y="3" font-family="sans-serif">IN</text></g><g class="relationship" transform="translate(-42.479958237688706 251.06894527913664) rotate(337.671688144546)"><path class="outline" fill="#A5ABB6" stroke="none" d="M 25 0.5 L 51.91955602600487 0.5 L 51.91955602600487 -0.5 L 25 -0.5 Z M 69.51153600647362 0.5 L 96.43109203247849 0.5 L 96.43109203247849 3.5 L 103.43109203247849 0 L 96.43109203247849 -3.5 L 96.43109203247849 -0.5 L 69.51153600647362 -0.5 Z"/><text text-anchor="middle" pointer-events="none" font-size="8px" fill="#000000" x="60.715546016239244" y="3" font-family="sans-serif">IN</text></g><g class="relationship" transform="translate(193.69309360437256 199.75745270393386) rotate(310.2942289090441)"><path class="outline" fill="#A5ABB6" stroke="none" d="M 25 0.5 L 54.12878036939668 0.5 L 54.12878036939668 -0.5 L 25 -0.5 Z M 71.72076034986543 0.5 L 100.84954071926211 0.5 L 100.84954071926211 3.5 L 107.84954071926211 0 L 100.84954071926211 -3.5 L 100.84954071926211 -0.5 L 71.72076034986543 -0.5 Z"/><text text-anchor="middle" pointer-events="none" font-size="8px" fill="#000000" x="62.924770359631054" y="3" font-family="sans-serif">IN</text></g><g class="relationship" transform="translate(76.32164058345852 202.27626633860137) rotate(358.77061041316824)"><path class="outline" fill="#A5ABB6" stroke="none" d="M 25 0.5 L 46.40324851923613 0.5 L 46.40324851923613 -0.5 L 25 -0.5 Z M 63.99522849970488 0.5 L 85.39847701894101 0.5 L 85.39847701894101 3.5 L 92.39847701894101 0 L 85.39847701894101 -3.5 L 85.39847701894101 -0.5 L 63.99522849970488 -0.5 Z"/><text text-anchor="middle" pointer-events="none" font-size="8px" fill="#000000" x="55.199238509470504" y="3" font-family="sans-serif">IN</text></g><g class="relationship" transform="translate(-183.68756177252772 90.00719747923887) rotate(331.27458566957347)"><path class="outline" fill="#A5ABB6" stroke="none" d="M 25 0.5 L 65.60512554617496 0.5 L 65.60512554617496 -0.5 L 25 -0.5 Z M 83.19710552664371 0.5 L 123.80223107281867 0.5 L 123.80223107281867 3.5 L 130.80223107281867 0 L 123.80223107281867 -3.5 L 123.80223107281867 -0.5 L 83.19710552664371 -0.5 Z"/><text text-anchor="middle" pointer-events="none" font-size="8px" fill="#000000" x="74.40111553640934" y="3" font-family="sans-serif">IN</text></g><g class="relationship" transform="translate(-47.05943332461668 15.126694515589437) rotate(334.2435624793384)"><path class="outline" fill="#A5ABB6" stroke="none" d="M 25 0.5 L 57.64247153164098 0.5 L 57.64247153164098 -0.5 L 25 -0.5 Z M 75.23445151210973 0.5 L 107.87692304375071 0.5 L 107.87692304375071 3.5 L 114.87692304375071 0 L 107.87692304375071 -3.5 L 107.87692304375071 -0.5 L 75.23445151210973 -0.5 Z"/><text text-anchor="middle" pointer-events="none" font-size="8px" fill="#000000" x="66.43846152187535" y="3" font-family="sans-serif">IN</text></g><g class="relationship" transform="translate(-47.05943332461668 15.126694515589437) rotate(378.31430381286805)"><path class="outline" fill="#A5ABB6" stroke="none" d="M 25 0.5 L 53.03876272529337 0.5 L 53.03876272529337 -0.5 L 25 -0.5 Z M 70.63074270576212 0.5 L 98.66950543105548 0.5 L 98.66950543105548 3.5 L 105.66950543105548 0 L 98.66950543105548 -3.5 L 98.66950543105548 -0.5 L 70.63074270576212 -0.5 Z"/><text text-anchor="middle" pointer-events="none" font-size="8px" fill="#000000" x="61.83475271552774" y="3" font-family="sans-serif">IN</text></g><g class="relationship" transform="translate(76.99127752329167 56.18690381516893) rotate(339.0095105531585)"><path class="outline" fill="#A5ABB6" stroke="none" d="M 25 0.5 L 51.04520140165276 0.5 L 51.04520140165276 -0.5 L 25 -0.5 Z M 68.63718138212151 0.5 L 94.68238278377427 0.5 L 94.68238278377427 3.5 L 101.68238278377427 0 L 94.68238278377427 -3.5 L 94.68238278377427 -0.5 L 68.63718138212151 -0.5 Z"/><text text-anchor="middle" pointer-events="none" font-size="8px" fill="#000000" x="59.841191391887136" y="3" font-family="sans-serif">IN</text></g><g class="relationship" transform="translate(-51.85001758695124 -67.3774126687675) rotate(403.80230648541135)"><path class="outline" fill="#A5ABB6" stroke="none" d="M 25 0.5 L 76.96237044987666 0.5 L 76.96237044987666 -0.5 L 25 -0.5 Z M 94.55435043034541 0.5 L 146.51672088022207 0.5 L 146.51672088022207 3.5 L 153.51672088022207 0 L 146.51672088022207 -3.5 L 146.51672088022207 -0.5 L 94.55435043034541 -0.5 Z"/><text text-anchor="middle" pointer-events="none" font-size="8px" fill="#000000" x="85.75836044011103" y="3" font-family="sans-serif">IN</text></g><g class="relationship" transform="translate(-47.10298048796264 88.15777790624851) rotate(345.5528461443471)"><path class="outline" fill="#A5ABB6" stroke="none" d="M 25 0.5 L 51.777252594934154 0.5 L 51.777252594934154 -0.5 L 25 -0.5 Z M 69.3692325754029 0.5 L 96.14648517033706 0.5 L 96.14648517033706 3.5 L 103.14648517033706 0 L 96.14648517033706 -3.5 L 96.14648517033706 -0.5 L 69.3692325754029 -0.5 Z"/><text text-anchor="middle" pointer-events="none" font-size="8px" fill="#000000" x="60.57324258516853" y="3" font-family="sans-serif">IN</text></g><g class="relationship" transform="translate(-183.68756177252772 90.00719747923887) rotate(389.16841556820935)"><path class="outline" fill="#A5ABB6" stroke="none" d="M 25 0.5 L 66.47616185733678 0.5 L 66.47616185733678 -0.5 L 25 -0.5 Z M 84.06814183780553 0.5 L 125.5443036951423 0.5 L 125.5443036951423 3.5 L 132.5443036951423 0 L 125.5443036951423 -3.5 L 125.5443036951423 -0.5 L 84.06814183780553 -0.5 Z"/><text text-anchor="middle" pointer-events="none" font-size="8px" fill="#000000" x="75.27215184757115" y="3" font-family="sans-serif">IN</text></g><g class="relationship" transform="translate(-46.12131284249121 166.79088573466495) rotate(376.1621980870119)"><path class="outline" fill="#A5ABB6" stroke="none" d="M 25 0.5 L 51.444674189462404 0.5 L 51.444674189462404 -0.5 L 25 -0.5 Z M 69.03665416993115 0.5 L 95.48132835939356 0.5 L 95.48132835939356 3.5 L 102.48132835939356 0 L 95.48132835939356 -3.5 L 95.48132835939356 -0.5 L 69.03665416993115 -0.5 Z"/><text text-anchor="middle" pointer-events="none" font-size="8px" fill="#000000" x="60.24066417969678" y="3" font-family="sans-serif">IN</text></g><g class="relationship" transform="translate(78.92063644503511 -45.65632631277203) rotate(385.88772311032716)"><path class="outline" fill="#A5ABB6" stroke="none" d="M 25 0.5 L 52.36593033387902 0.5 L 52.36593033387902 -0.5 L 25 -0.5 Z M 69.95791031434777 0.5 L 97.32384064822679 0.5 L 97.32384064822679 3.5 L 104.32384064822679 0 L 97.32384064822679 -3.5 L 97.32384064822679 -0.5 L 69.95791031434777 -0.5 Z"/><text text-anchor="middle" pointer-events="none" font-size="8px" fill="#000000" x="61.161920324113396" y="3" font-family="sans-serif">IN</text></g><g class="relationship" transform="translate(-51.85001758695124 -67.3774126687675) rotate(369.430763620243)"><path class="outline" fill="#A5ABB6" stroke="none" d="M 25 0.5 L 53.985171640424454 0.5 L 53.985171640424454 -0.5 L 25 -0.5 Z M 71.5771516208932 0.5 L 100.56232326131766 0.5 L 100.56232326131766 3.5 L 107.56232326131766 0 L 100.56232326131766 -3.5 L 100.56232326131766 -0.5 L 71.5771516208932 -0.5 Z"/><text text-anchor="middle" pointer-events="none" font-size="8px" fill="#000000" x="62.78116163065883" y="3" font-family="sans-serif">IN</text></g><g class="relationship" transform="translate(-47.10298048796264 88.15777790624851) rotate(313.2826651847971)"><path class="outline" fill="#A5ABB6" stroke="none" d="M 25 0.5 L 79.61179873413579 0.5 L 79.61179873413579 -0.5 L 25 -0.5 Z M 97.20377871460454 0.5 L 151.81557744874033 0.5 L 151.81557744874033 3.5 L 158.81557744874033 0 L 151.81557744874033 -3.5 L 151.81557744874033 -0.5 L 97.20377871460454 -0.5 Z"/><text text-anchor="middle" pointer-events="none" font-size="8px" fill="#000000" x="88.40778872437016" y="3" font-family="sans-serif">IN</text></g><g class="relationship" transform="translate(-183.68756177252772 90.00719747923887) rotate(309.9521502842944)"><path class="outline" fill="#A5ABB6" stroke="none" d="M 25 0.5 L 90.3576187728332 0.5 L 90.3576187728332 -0.5 L 25 -0.5 Z M 107.94959875330196 0.5 L 173.30721752613516 0.5 L 173.30721752613516 3.5 L 180.30721752613516 0 L 173.30721752613516 -3.5 L 173.30721752613516 -0.5 L 107.94959875330196 -0.5 Z"/><text text-anchor="middle" pointer-events="none" font-size="8px" fill="#000000" x="99.15360876306758" y="3" font-family="sans-serif">IN</text></g><g class="relationship" transform="translate(195.2670046284398 10.80763007127527) rotate(406.09252980159926)"><path class="outline" fill="#A5ABB6" stroke="none" d="M 25 0.5 L 48.51303885776816 0.5 L 48.51303885776816 -0.5 L 25 -0.5 Z M 66.1050188382369 0.5 L 89.61805769600507 0.5 L 89.61805769600507 3.5 L 96.61805769600507 0 L 89.61805769600507 -3.5 L 89.61805769600507 -0.5 L 66.1050188382369 -0.5 Z"/><text text-anchor="middle" pointer-events="none" font-size="8px" fill="#000000" x="57.309028848002534" y="3" font-family="sans-serif">IN</text></g><g class="relationship" transform="translate(-183.68756177252772 90.00719747923887) rotate(359.2242355628009)"><path class="outline" fill="#A5ABB6" stroke="none" d="M 25 0.5 L 56.00256086817865 0.5 L 56.00256086817865 -0.5 L 25 -0.5 Z M 73.5945408486474 0.5 L 104.59710171682605 0.5 L 104.59710171682605 3.5 L 111.59710171682605 0 L 104.59710171682605 -3.5 L 104.59710171682605 -0.5 L 73.5945408486474 -0.5 Z"/><text text-anchor="middle" pointer-events="none" font-size="8px" fill="#000000" x="64.79855085841302" y="3" font-family="sans-serif">IN</text></g></g><g class="layer nodes"><g class="node" transform="translate(-42.479958237688706,251.06894527913664)"><circle class="outline" cx="0" cy="0" r="25" fill="#A5ABB6" stroke="#9AA1AC" stroke-width="2px"/><text text-anchor="middle" pointer-events="none" y="5" font-size="10px" fill="#FFFFFF" font-family="sans-serif"> serv14…</text></g><g class="node" transform="translate(193.69309360437256,199.75745270393386)"><circle class="outline" cx="0" cy="0" r="25" fill="#A5ABB6" stroke="#9AA1AC" stroke-width="2px"/><text text-anchor="middle" pointer-events="none" y="5" font-size="10px" fill="#FFFFFF" font-family="sans-serif"> serv15…</text></g><g class="node" transform="translate(-47.05943332461668,15.126694515589437)"><circle class="outline" cx="0" cy="0" r="25" fill="#A5ABB6" stroke="#9AA1AC" stroke-width="2px"/><text text-anchor="middle" pointer-events="none" y="5" font-size="10px" fill="#FFFFFF" font-family="sans-serif"> serv12…</text></g><g class="node" transform="translate(76.99127752329167,56.18690381516893)"><circle class="outline" cx="0" cy="0" r="25" fill="#A5ABB6" stroke="#9AA1AC" stroke-width="2px"/><text text-anchor="middle" pointer-events="none" y="5" font-size="10px" fill="#FFFFFF" font-family="sans-serif"> serv20…</text></g><g class="node" transform="translate(-46.12131284249121,166.79088573466495)"><circle class="outline" cx="0" cy="0" r="25" fill="#A5ABB6" stroke="#9AA1AC" stroke-width="2px"/><text text-anchor="middle" pointer-events="none" y="5" font-size="10px" fill="#FFFFFF" font-family="sans-serif"> serv72…</text></g><g class="node" transform="translate(76.32164058345852,202.27626633860137)"><circle class="outline" cx="0" cy="0" r="25" fill="#A5ABB6" stroke="#9AA1AC" stroke-width="2px"/><text text-anchor="middle" pointer-events="none" y="5" font-size="10px" fill="#FFFFFF" font-family="sans-serif"> serv76…</text></g><g class="node" transform="translate(78.92063644503511,-45.65632631277203)"><circle class="outline" cx="0" cy="0" r="25" fill="#A5ABB6" stroke="#9AA1AC" stroke-width="2px"/><text text-anchor="middle" pointer-events="none" y="5" font-size="10px" fill="#FFFFFF" font-family="sans-serif"> serv63…</text></g><g class="node" transform="translate(-51.85001758695124,-67.3774126687675)"><circle class="outline" cx="0" cy="0" r="25" fill="#A5ABB6" stroke="#9AA1AC" stroke-width="2px"/><text text-anchor="middle" pointer-events="none" y="5" font-size="10px" fill="#FFFFFF" font-family="sans-serif"> serv56…</text></g><g class="node" transform="translate(195.2670046284398,10.80763007127527)"><circle class="outline" cx="0" cy="0" r="25" fill="#A5ABB6" stroke="#9AA1AC" stroke-width="2px"/><text text-anchor="middle" pointer-events="none" y="5" font-size="10px" fill="#FFFFFF" font-family="sans-serif"> serv69…</text></g><g class="node" transform="translate(-183.68756177252772,90.00719747923887)"><circle class="outline" cx="0" cy="0" r="25" fill="#DE9BF9" stroke="#BF85D6" stroke-width="2px"/><text text-anchor="middle" pointer-events="none" y="5" font-size="10px" fill="#FFFFFF" font-family="sans-serif"> start</text></g><g class="node" transform="translate(-47.10298048796264,88.15777790624851)"><circle class="outline" cx="0" cy="0" r="25" fill="#A5ABB6" stroke="#9AA1AC" stroke-width="2px"/><text text-anchor="middle" pointer-events="none" y="5" font-size="10px" fill="#FFFFFF" font-family="sans-serif"> serv13…</text></g><g class="node" transform="translate(279.6086128943064,98.4286610676971)"><circle class="outline" cx="0" cy="0" r="25" fill="#68BDF6" stroke="#5CA8DB" stroke-width="2px"/><text text-anchor="middle" pointer-events="none" y="5" font-size="10px" fill="#FFFFFF" font-family="sans-serif"> end</text></g></g></svg>